PathFileType	4	(X/Y/Z)	Run_200 01
DataRate	CameraRate	NumFrames	NumMarkers	Units	OrigDataRate	OrigDataStartFrame	OrigNumFrames
120	120	4	42	mm	120	571	128
Frame#	Time	LASI			RASI			LPSI			RPSI			RTH1			RTH2			RTH3			LTH1			LTH2			LTH3			RTB2			RTB3			LTB1			LTB2			LTB3			RCAL			RTOE			RMT5			LCAL			LTOE			LMT5			LACR			RACR			CLAV			C7			RUA1			RUA2			RUA3			RLEL			RMEL			LUA1			LUA2			LUA3			LLEL			LMEL			RFAsuperior			RFAradius			RFAulna			LFAsuperior			LFAradius			LFAulna			RTB1		
		X1	Y1	Z1	X2	Y2	Z2	X3	Y3	Z3	X4	Y4	Z4	X5	Y5	Z5	X6	Y6	Z6	X7	Y7	Z7	X8	Y8	Z8	X9	Y9	Z9	X10	Y10	Z10	X11	Y11	Z11	X12	Y12	Z12	X13	Y13	Z13	X14	Y14	Z14	X15	Y15	Z15	X16	Y16	Z16	X17	Y17	Z17	X18	Y18	Z18	X19	Y19	Z19	X20	Y20	Z20	X21	Y21	Z21	X22	Y22	Z22	X23	Y23	Z23	X24	Y24	Z24	X25	Y25	Z25	X26	Y26	Z26	X27	Y27	Z27	X28	Y28	Z28	X29	Y29	Z29	X30	Y30	Z30	X31	Y31	Z31	X32	Y32	Z32	X33	Y33	Z33	X34	Y34	Z34	X35	Y35	Z35	X36	Y36	Z36	X37	Y37	Z37	X38	Y38	Z38	X39	Y39	Z39	X40	Y40	Z40	X41	Y41	Z41	X42	Y42	Z42	

571	  4.758333	455.686192	1008.537058	-451.910697	445.221879	1010.350131	-210.209396	281.035207	1020.200086	-382.177961	280.065479	1027.079983	-293.541476	409.152477	815.114171	-169.729018	468.932502	695.273860	-183.316277	389.680036	573.958916	-177.310534	439.642828	858.270846	-501.031511	520.745040	761.506332	-478.873996	482.829079	611.829201	-470.755468	222.442101	414.870648	-191.177548	130.781956	351.578612	-260.139285	546.354464	378.845372	-387.315190	490.739437	276.854951	-435.149747	493.457340	197.653493	-359.271947	-17.049754	414.041040	-295.122975	 14.654295	200.540402	-262.922041	-27.772142	240.898539	-182.264141	361.827897	 97.538606	-361.851969	579.322455	 79.158970	-350.953816	553.948502	 60.398780	-439.934351	422.476628	1448.466005	-538.225058	445.459315	1455.031265	-160.898636	525.309611	1415.581707	-329.443411	390.002319	1505.593418	-351.705171	422.988088	1355.958749	-87.646462	435.797512	1285.234816	-84.156842	346.071079	1291.294860	-24.741197	369.584726	1204.308280	  0.395879	290.604488	1190.817938	-46.568974	380.165205	1390.117090	-598.172029	302.486542	1341.380033	-589.734317	345.277850	1307.387094	-644.608068	298.047436	1214.290635	-690.245258	249.737959	1175.917252	-621.013965	434.242400	1194.442191	-52.536149	512.228319	1192.382800	-199.875824	501.828282	1127.800192	-185.623174	368.329561	1213.888276	-674.294431	499.065738	1209.573088	-557.442213	503.791086	1150.642686	-585.068001	303.584273	397.985508	-234.613194	
572	  4.766667	453.937434	1001.818996	-453.450034	444.659910	1002.953278	-210.334213	277.739245	1011.345406	-381.179522	277.033368	1016.661866	-293.318531	413.176795	809.234570	-170.467768	476.100287	692.024438	-183.512869	401.069224	568.190099	-176.694879	436.081170	854.721466	-501.912509	518.703710	758.435243	-479.211643	484.036550	609.206741	-472.987474	233.903790	415.559853	-189.943525	139.791554	355.680412	-258.157065	541.088968	376.587749	-386.771668	483.410057	276.561891	-435.644303	481.879017	197.406804	-359.144350	 -4.744312	423.146266	-294.155549	 18.445710	209.226723	-258.695908	-21.446228	252.771802	-178.395885	346.124151	 98.223756	-361.854088	563.302648	 78.728316	-350.770136	537.731461	 60.573099	-439.774552	424.580146	1441.046717	-539.998924	442.879020	1449.243972	-161.262640	526.557199	1408.250385	-328.532147	389.596180	1498.896152	-353.876521	418.777290	1349.580688	-89.050599	430.527283	1278.746160	-85.319088	340.636385	1286.272124	-26.678130	363.039462	1199.320915	 -0.586093	284.872457	1186.382052	-48.639721	384.103283	1380.177515	-599.909455	306.572092	1330.701500	-593.600603	351.418953	1297.829781	-647.890895	306.704902	1204.690975	-695.095231	258.163124	1165.236264	-627.022831	428.192037	1186.555352	-52.640506	509.376077	1180.673214	-197.789632	497.525601	1116.658742	-182.220915	376.720176	1204.133256	-678.338848	505.971551	1200.221494	-559.076248	511.727230	1141.435727	-587.517883	314.279254	396.413734	-233.902137	
573	  4.775000	452.204030	996.025558	-455.465424	443.688504	995.599968	-210.236147	274.739169	1004.178868	-378.976358	274.013984	1007.653795	-292.360009	417.064335	804.550381	-170.958377	482.940264	689.841545	-183.817466	412.317494	563.812473	-176.375338	432.388014	852.120335	-502.855378	515.836588	756.153235	-480.103471	483.884120	606.913181	-475.263445	246.289735	416.241937	-188.754514	150.106195	359.555033	-256.279198	534.753137	375.117904	-386.720821	475.726525	276.425386	-436.280201	470.558571	197.270142	-359.722917	  8.191649	430.943897	-292.527368	 24.359735	216.866668	-254.396636	-12.462142	262.956728	-174.437033	330.737831	 99.048458	-361.813592	547.384187	 77.330435	-351.287645	521.666672	 60.203728	-439.989597	426.620345	1433.966324	-541.905621	440.078527	1444.058011	-161.446128	527.372940	1401.821152	-327.257732	389.520543	1493.275445	-355.896423	414.386708	1343.843022	-90.291299	424.602657	1272.871238	-86.733239	334.481222	1281.764684	-29.084686	356.031068	1194.839990	 -1.890119	279.185928	1181.971629	-51.147363	388.199792	1370.404952	-601.725399	310.984998	1320.052160	-597.227281	357.974230	1288.459221	-650.828257	316.132279	1195.232009	-699.525454	267.143880	1154.575055	-632.665455	421.815192	1178.882364	-52.521316	506.467062	1168.422319	-195.235074	492.927551	1105.023427	-178.219634	385.879825	1194.404118	-681.710745	513.534280	1190.674642	-559.979579	520.215965	1132.046775	-589.419879	325.962627	395.430309	-233.454956	
574	  4.783333	450.642721	991.413790	-457.493992	442.308547	988.813305	-209.692041	272.378789	999.475270	-375.978743	271.481644	1001.275635	-290.597436	420.557791	801.079647	-171.165302	489.496186	688.570533	-184.182359	423.398458	560.944732	-176.153407	428.917008	849.872079	-503.647400	512.118753	753.873189	-481.511843	481.262476	604.279484	-477.153515	259.426909	417.054577	-187.576892	161.672270	363.297067	-254.747382	527.125439	373.153791	-387.217682	466.799318	275.207436	-436.723151	458.515945	196.340873	-360.330418	 21.298680	437.448155	-290.212870	 32.280742	223.123512	-249.908094	 -1.011131	271.055078	-170.501932	315.309450	 99.846028	-361.606885	531.191152	 75.588923	-351.979810	505.453785	 59.635251	-440.336307	428.495445	1427.382754	-543.782721	437.170607	1439.725422	-161.624457	527.560591	1396.587928	-325.903384	389.770694	1488.882883	-357.692244	409.880016	1339.194777	-91.391106	418.117050	1268.082460	-88.482404	327.647587	1278.135083	-32.141977	348.621332	1191.106526	 -3.563390	273.580054	1177.987039	-54.241740	392.147592	1361.379232	-603.474921	315.777060	1309.779620	-600.296281	364.848637	1279.697761	-653.177571	326.401288	1186.277574	-703.250916	276.765051	1144.174599	-637.914411	415.137593	1171.932754	-52.373426	503.459827	1155.979877	-192.260660	487.912154	1093.181859	-173.679444	395.854335	1185.335712	-684.011015	521.708795	1181.184269	-560.181864	529.200582	1122.799363	-590.734171	338.516817	395.020533	-233.085908	
